<?xml version="1.0" encoding="UTF-8"?>
<svg width="144px" height="77px" viewBox="0 0 144 77" version="1.1" xmlns="http://www.w3.org/2000/svg" xmlns:xlink="http://www.w3.org/1999/xlink">
    <!-- Generator: Sketch 50.2 (55047) - http://www.bohemiancoding.com/sketch -->
    <title>oba_logo_rood</title>
    <desc>Created with Sketch.</desc>
    <defs>
        <polygon id="path-1" points="0.867 0.2 53.667 0.2 53.667 76.94 0.867 76.94"></polygon>
    </defs>
    <g id="oba_logo_rood" stroke="none" stroke-width="1" fill="none" fill-rule="evenodd">
        <g id="Group-3" transform="translate(45.000000, 0.000000)">
            <mask id="mask-2" fill="white">
                <use xlink:href="#path-1"></use>
            </mask>
            <g id="Clip-2"></g>
            <path d="M26.667,63.8 C34.167,63.8 38.667,58.8 38.667,51.5 C38.667,44.199 34.167,39.199 26.667,39.199 C19.167,39.199 14.667,44.199 14.667,51.5 C14.667,58.8 19.167,63.8 26.667,63.8 Z M0.867,0.2 L15.867,0.2 L15.867,32.399 L16.067,32.399 C19.467,27.7 25.268,26.001 31.467,26.001 C45.268,26.001 53.667,38.399 53.667,51.899 C53.667,66.6 44.167,77 29.768,77 C22.967,77 17.167,72.899 14.867,69.399 L14.667,69.399 L14.667,75.8 L0.867,75.8 L0.867,0.2 Z" id="Fill-1" fill="#D8232A" mask="url(#mask-2)"></path>
        </g>
        <path d="M28.351,51.618 C28.351,45.993 24.601,42.618 19.125,42.618 C13.65,42.618 9.9,45.993 9.9,51.618 C9.9,57.243 13.65,60.618 19.125,60.618 C24.601,60.618 28.351,57.243 28.351,51.618 Z M0,51.618 C0,40.368 7.5,31.368 19.125,31.368 C30.751,31.368 38.251,40.368 38.251,51.618 C38.251,62.868 30.751,71.868 19.125,71.868 C7.5,71.868 0,62.868 0,51.618 Z" id="Fill-4" fill="#D8232A"></path>
        <path d="M127.101,47.681 C127.101,51.131 127.401,58.781 132.351,58.781 C135.051,58.781 136.326,55.931 136.326,53.456 C136.326,49.031 134.001,44.906 129.501,44.906 L127.101,44.906 L127.101,47.681 Z M138.501,44.906 L138.501,45.056 C142.401,47.531 143.977,52.031 143.977,56.607 C143.977,63.431 140.076,69.581 132.726,69.581 C120.126,69.581 119.901,54.281 119.901,44.906 C115.926,44.906 113.376,48.206 113.376,52.107 C113.376,55.781 115.026,58.857 117.726,61.256 L111.576,67.256 C107.676,63.131 105.726,57.131 105.726,51.206 C105.726,38.081 112.4,34.556 124.551,34.556 L143.076,34.556 L143.076,44.906 L138.501,44.906 Z" id="Fill-5" fill="#D8232A"></path>
    </g>
</svg>